<?xml version="1.0" encoding="utf-8"?>
<svg version="1.1" id="Layer_1" xmlns="http://www.w3.org/2000/svg" xmlns:xlink="http://www.w3.org/1999/xlink" x="0px" y="0px"
	 viewBox="0 0 215.1 183.4" style="enable-background:new 0 0 215.1 183.4;" xml:space="preserve">
<style type="text/css">
	.st0{fill:url(#SVGID_1_);}
	.st1{fill:url(#SVGID_2_);}
	.st2{filter:url(#Adobe_OpacityMaskFilter);}
	.st3{fill:url(#SVGID_4_);}
	.st4{mask:url(#SVGID_3_);fill:url(#SVGID_5_);}
	.st5{fill:none;}
	.st6{fill:#FFFFFF;}
	.st7{fill:url(#SVGID_6_);}
	.st8{fill:url(#SVGID_7_);}
	.st9{filter:url(#Adobe_OpacityMaskFilter_1_);}
	.st10{fill:url(#SVGID_9_);}
	.st11{mask:url(#SVGID_8_);fill:url(#SVGID_10_);}
	.st12{fill:url(#SVGID_11_);}
	.st13{fill:url(#SVGID_12_);}
	.st14{fill:url(#SVGID_13_);}
	.st15{fill:url(#SVGID_14_);}
	.st16{fill:url(#SVGID_15_);}
	.st17{fill:url(#SVGID_16_);}
	.st18{fill:url(#SVGID_17_);}
	.st19{fill:url(#SVGID_18_);}
	.st20{fill:url(#SVGID_19_);}
	.st21{fill:#CD1719;}
	.st22{fill:url(#SVGID_20_);}
	.st23{fill:url(#SVGID_21_);}
	.st24{fill:url(#SVGID_22_);}
	.st25{fill:url(#SVGID_23_);}
	.st26{fill:url(#SVGID_24_);}
	.st27{fill:url(#SVGID_25_);}
	.st28{fill:url(#SVGID_26_);}
	.st29{fill:url(#SVGID_27_);}
</style>
<g>
	<g>
		<g>
			<path class="st21" d="M51.9,44.3c-0.7-0.2-1.8-0.5-1.9,0.3c-0.2,0.7,1.2,1.1,1.7,1.2c1.1,0.2,2.2,0.9,3,1.7
				c1.7,1.8,2.1,4.6,1.1,6.9c-1,2.3-3.3,3.7-5.8,3.9c-1.4,0.1-4.3-0.3-5.4-1.8c-1.5-1.9,0-4.7,2.3-4.6c0.9,0,1.9,0.7,2.7,0.8
				c1.3,0.1,1.6-1.5,0.4-1.9c-2.4-0.7-4.1-1.6-5.2-3.8c-0.8-1.6-0.6-3.7,0.5-5.2c1.8-2.4,5.2-3.3,8-2.2c1.5,0.6,2.7,2.1,1.8,3.8
				C54.4,44.6,53.3,44.8,51.9,44.3z"/>
			<path class="st21" d="M76.8,48.8c0,5.3-4.3,9.6-9.6,9.6s-9.6-4.3-9.6-9.6c0-5.3,4.3-9.6,9.6-9.6S76.8,43.5,76.8,48.8z M63.6,48.8
				c0,2,1.6,3.6,3.6,3.6s3.6-1.6,3.6-3.6c0-2-1.6-3.6-3.6-3.6S63.6,46.8,63.6,48.8z"/>
			<path class="st21" d="M87.7,58.4c-5.3,0-9.6-4.3-9.6-9.6c0-5.3,4.3-9.6,9.6-9.6c2.1,0,4.2,0.7,5.8,2c1.3,1,1.6,2.9,0.6,4.2
				c-1,1.3-2.9,1.6-4.2,0.6c-0.6-0.5-1.4-0.7-2.2-0.7c-2,0-3.6,1.6-3.6,3.6c0,2,1.6,3.6,3.6,3.6c0.8,0,1.6-0.3,2.2-0.7
				c1.3-1,3.2-0.7,4.2,0.6c1,1.3,0.7,3.2-0.6,4.2C91.9,57.7,89.9,58.4,87.7,58.4z"/>
			<path class="st21" d="M99.3,58.1c-1.6,0-3-1.3-3-3v-13c0-1.6,1.3-3,3-3s3,1.3,3,3v13C102.3,56.8,100.9,58.1,99.3,58.1z
				 M101.8,35.7c0,1.4-1.2,2.6-2.5,2.6c-1.4,0-2.6-1.2-2.6-2.6c0-1.4,1.2-2.5,2.6-2.5C100.7,33.2,101.8,34.4,101.8,35.7z"/>
			<path class="st21" d="M123,42.2v13.1c0,1.5-1.3,2.8-2.8,2.8c-0.8,0-1.6-0.4-2.1-0.9c-1.4,0.7-3,1.2-4.7,1.2
				c-5.3,0-9.6-4.3-9.6-9.6c0-5.3,4.3-9.6,9.6-9.6c1.6,0,3.2,0.4,4.6,1.2c0.5-0.7,1.3-1,2.2-1C121.7,39.4,123,40.6,123,42.2z
				 M117,48.8c0-2-1.6-3.6-3.6-3.6s-3.6,1.6-3.6,3.6c0,2,1.6,3.6,3.6,3.6S117,50.8,117,48.8z"/>
			<path class="st21" d="M128.1,58.1c-1.6,0-3-1.3-3-3V36.2c0-1.6,1.3-3,3-3c1.6,0,3,1.3,3,3v18.9C131.1,56.8,129.7,58.1,128.1,58.1
				z"/>
		</g>
	</g>
	<g>
		<linearGradient id="SVGID_1_" gradientUnits="userSpaceOnUse" x1="-5.4111" y1="94.2783" x2="188.6176" y2="161.5944">
			<stop  offset="0" style="stop-color:#AF388D"/>
			<stop  offset="1" style="stop-color:#E63322"/>
		</linearGradient>
		<path class="st0" d="M133.3,142.7c0.3-0.2,0.5-0.4,0.3-0.5C133.5,142.4,133.4,142.5,133.3,142.7z"/>
		<linearGradient id="SVGID_2_" gradientUnits="userSpaceOnUse" x1="2.1717" y1="72.4222" x2="196.2003" y2="139.7382">
			<stop  offset="0" style="stop-color:#AF388D"/>
			<stop  offset="1" style="stop-color:#E63322"/>
		</linearGradient>
		<path class="st1" d="M16.2,92c0.2,0,0.4-0.1,0.6-0.1c0.2,0,0.4-0.1,0.5-0.1c0.2,0,0.4-0.1,0.6-0.1c0.2,0,0.4-0.1,0.5-0.1
			c0.2,0,0.4-0.1,0.6-0.1c0.2,0,0.4-0.1,0.5-0.1c0.2,0,0.4-0.1,0.6-0.1c0.2,0,0.3-0.1,0.5-0.1c0.2-0.1,0.4-0.1,0.6-0.2
			c0.2,0,0.3-0.1,0.5-0.1c0.2-0.1,0.4-0.1,0.6-0.2c0.2,0,0.3-0.1,0.5-0.2c0.2-0.1,0.4-0.1,0.6-0.2c0.2-0.1,0.3-0.1,0.5-0.2
			c0.2-0.1,0.4-0.1,0.6-0.2c0.2-0.1,0.3-0.1,0.5-0.2c0.2-0.1,0.4-0.1,0.6-0.2c0.2-0.1,0.3-0.1,0.5-0.2c0.2-0.1,0.4-0.2,0.6-0.2
			c0.2-0.1,0.3-0.1,0.5-0.2c0.2-0.1,0.4-0.2,0.6-0.3c0.2-0.1,0.3-0.1,0.5-0.2c0.2-0.1,0.4-0.2,0.6-0.3c0.1-0.1,0.3-0.1,0.4-0.2
			c0.2-0.1,0.4-0.2,0.7-0.3c0.1-0.1,0.3-0.1,0.4-0.2c0.2-0.1,0.5-0.3,0.7-0.4c0.1-0.1,0.2-0.1,0.3-0.2c0.3-0.2,0.7-0.4,1-0.6
			c0.8-0.5,1.5-1,2.1-1.6c0,0,0.1-0.1,0.1-0.1c0.2-0.2,0.4-0.4,0.6-0.7c0.2-0.3,0.4-0.5,0.6-0.8c0,0,0,0,0-0.1
			c1.8-2.7,2.3-6.3,1.2-9.5c0,0,0,0,0,0c0-0.1-0.1-0.3-0.2-0.4c0,0,0,0,0-0.1c0-0.1-0.1-0.2-0.2-0.4c0,0,0-0.1-0.1-0.1
			c0-0.1-0.1-0.2-0.1-0.3c0-0.1-0.1-0.1-0.1-0.2c0-0.1-0.1-0.2-0.1-0.2c0-0.1-0.1-0.2-0.1-0.3c0,0,0-0.1-0.1-0.1
			c-0.1-0.1-0.2-0.3-0.3-0.4c0-0.1-0.1-0.1-0.2-0.2c-0.1-0.1-0.1-0.2-0.2-0.3c-0.1-0.1-0.1-0.1-0.2-0.2c-0.1-0.1-0.2-0.2-0.2-0.3
			c-0.1-0.1-0.1-0.1-0.2-0.2c-0.1-0.1-0.1-0.2-0.2-0.2l0,0c-2.2-1.9-4.8-2.8-7.6-2.8c-6.6,0-11.8,5.3-11.8,12v13.4
			c0.1,0,0.1,0,0.2,0C15.8,92.1,16,92,16.2,92z"/>
		<linearGradient id="SVGID_3_" gradientUnits="userSpaceOnUse" x1="7.9189" y1="55.8567" x2="201.9475" y2="123.1727">
			<stop  offset="0" style="stop-color:#AF388D"/>
			<stop  offset="1" style="stop-color:#E63322"/>
		</linearGradient>
		<path style="fill:url(#SVGID_3_);" d="M199.5,102.9c-2.6-21-20.5-36.8-41.6-36.9c-11.5,0.1-22.2,4.7-29.9,12.6
			c5.1,6.4,8.2,14.5,8.2,23.3v34.3c0,2.3-0.6,4.5-1.6,6.4c7.3,4.9,16.2,7.6,25.7,7.6c4.1,0,8.2-0.5,12.1-1.6
			c3.9-1.1,7.7-2.6,11.2-4.6c5-3,6.7-9.6,3.8-14.8c-1.5-2.5-3.9-4.3-6.8-5c-1.3-0.3-2.7-0.4-4-0.2c-1.2,0.2-2.4,0.7-3.5,1.4
			c-2.6,1.4-5.5,2.4-8.4,3c-8.9,1.7-18.7-0.9-24.8-10.2l-0.7-1.1h0.4l0,0h45.8c1.3,0,2.4-0.1,3.6-0.3c3.4-0.6,6.1-1.9,7.9-4
			C199,110.4,200,107.1,199.5,102.9z M141.6,98.1c1.8-5.4,8.5-11.3,16.5-11.3c8.1,0,14.7,5.8,16.5,11.3H141.6z"/>
		<linearGradient id="SVGID_4_" gradientUnits="userSpaceOnUse" x1="4.0699" y1="66.9508" x2="198.0985" y2="134.2668">
			<stop  offset="0" style="stop-color:#AF388D"/>
			<stop  offset="1" style="stop-color:#E63322"/>
		</linearGradient>
		<path class="st3" d="M120,125.9c3.1,6.5,7.8,11.9,13.5,16c0.9-1.7,1.4-3.6,1.4-5.6v-34.3c0-8.4-2.9-16.1-7.8-22.3
			c-3.2,3.5-5.7,7.5-7.6,12C115,102.7,115.2,115.8,120,125.9z"/>
		<linearGradient id="SVGID_5_" gradientUnits="userSpaceOnUse" x1="-1.8762" y1="84.0896" x2="192.1524" y2="151.4056">
			<stop  offset="0" style="stop-color:#AF388D"/>
			<stop  offset="1" style="stop-color:#E63322"/>
		</linearGradient>
		<path style="fill:url(#SVGID_5_);" d="M118.8,126.5c-5.1-10.6-5.3-23.8-0.5-35.4c1.9-4.7,4.7-9,8-12.6c0.3,0.4,0.6,0.7,0.9,1.1
			c0.3-0.4,0.2-0.5-0.1-0.2c-6.7-8.2-16.9-13.5-28.3-13.5c-8.3,0-16.5,3-23.2,8.4l-0.4,0.4l-0.4-0.4c-6.6-5.4-14.8-8.4-23.2-8.4
			c-5.4,0-10.5,1.1-15.1,3.4c0.4,0.5,0.8,1.1,1.2,1.6c3.4,5.8,1.4,13.3-4.3,16.7c-5.5,3.2-11.5,5.2-18,6.1v42.6
			c0,7,5.6,12.7,12.5,12.7c7,0,12.7-5.7,12.7-12.7v-34.3c0-6.1,4.8-10.9,10.9-10.9c4.6,0,8.5,2.8,10.1,6.8c0.6,1.3,0.9,2.7,0.9,4.2
			v34.3c0,1.2,0.2,2.5,0.5,3.6c1.6,5.1,6.5,8.9,12.1,8.9c7,0,12.7-5.7,12.7-12.7v-34.3c0-6,4.9-10.9,10.9-10.9c3.5,0,6.5,1.6,8.5,4
			c1.5,1.9,2.5,4.3,2.5,7v34.3c0,2.1,0.6,4.1,1.5,5.9c2.2,3.9,6.4,6.6,11.1,6.6c4.4,0,8.3-2.3,10.6-5.8
			C126.9,138.9,122,133.2,118.8,126.5z"/>
	</g>
</g>
</svg>
